<mxfile host="app.diagrams.net" modified="2023-04-23T18:22:11.088Z" agent="Mozilla/5.0 (Windows NT 10.0; Win64; x64) AppleWebKit/537.36 (KHTML, like Gecko) Chrome/112.0.0.0 Safari/537.36" etag="QxI_tOdCyD-_ODFhs7Tw" version="21.2.1" type="github">
  <diagram id="R2lEEEUBdFMjLlhIrx00" name="Page-1">
    <mxGraphModel dx="1714" dy="1986" grid="1" gridSize="10" guides="1" tooltips="1" connect="1" arrows="1" fold="1" page="1" pageScale="1" pageWidth="850" pageHeight="1100" math="0" shadow="0" extFonts="Permanent Marker^https://fonts.googleapis.com/css?family=Permanent+Marker">
      <root>
        <mxCell id="0" />
        <mxCell id="1" parent="0" />
        <mxCell id="VpzqkuG75HWZYniPs1sA-3" style="edgeStyle=orthogonalEdgeStyle;rounded=0;orthogonalLoop=1;jettySize=auto;html=1;entryX=0;entryY=0.5;entryDx=0;entryDy=0;entryPerimeter=0;" edge="1" parent="1" source="VpzqkuG75HWZYniPs1sA-1" target="VpzqkuG75HWZYniPs1sA-2">
          <mxGeometry relative="1" as="geometry" />
        </mxCell>
        <mxCell id="VpzqkuG75HWZYniPs1sA-1" value="Data Recorder" style="rounded=0;whiteSpace=wrap;html=1;" vertex="1" parent="1">
          <mxGeometry x="350" y="-50" width="120" height="60" as="geometry" />
        </mxCell>
        <mxCell id="VpzqkuG75HWZYniPs1sA-8" value="if enough data have been collected" style="edgeStyle=orthogonalEdgeStyle;rounded=0;orthogonalLoop=1;jettySize=auto;html=1;entryX=0.5;entryY=0;entryDx=0;entryDy=0;" edge="1" parent="1" source="VpzqkuG75HWZYniPs1sA-2" target="VpzqkuG75HWZYniPs1sA-6">
          <mxGeometry relative="1" as="geometry" />
        </mxCell>
        <mxCell id="VpzqkuG75HWZYniPs1sA-2" value="" style="shape=cylinder3;whiteSpace=wrap;html=1;boundedLbl=1;backgroundOutline=1;size=15;" vertex="1" parent="1">
          <mxGeometry x="580" y="-60" width="60" height="80" as="geometry" />
        </mxCell>
        <mxCell id="VpzqkuG75HWZYniPs1sA-5" style="edgeStyle=orthogonalEdgeStyle;rounded=0;orthogonalLoop=1;jettySize=auto;html=1;entryX=0;entryY=0.5;entryDx=0;entryDy=0;strokeWidth=2;strokeColor=#0000FF;" edge="1" parent="1" source="VpzqkuG75HWZYniPs1sA-4" target="VpzqkuG75HWZYniPs1sA-1">
          <mxGeometry relative="1" as="geometry" />
        </mxCell>
        <mxCell id="VpzqkuG75HWZYniPs1sA-29" style="edgeStyle=orthogonalEdgeStyle;rounded=0;orthogonalLoop=1;jettySize=auto;html=1;entryX=0.004;entryY=0.167;entryDx=0;entryDy=0;entryPerimeter=0;strokeColor=#0000FF;strokeWidth=2;" edge="1" parent="1" source="VpzqkuG75HWZYniPs1sA-4" target="VpzqkuG75HWZYniPs1sA-12">
          <mxGeometry relative="1" as="geometry">
            <mxPoint x="130" y="210" as="targetPoint" />
            <Array as="points">
              <mxPoint x="145" y="-20" />
              <mxPoint x="145" y="600" />
            </Array>
          </mxGeometry>
        </mxCell>
        <mxCell id="VpzqkuG75HWZYniPs1sA-4" value="Broker" style="whiteSpace=wrap;html=1;aspect=fixed;fillColor=#fff2cc;strokeColor=#d6b656;shadow=1;" vertex="1" parent="1">
          <mxGeometry x="20" y="-60" width="80" height="80" as="geometry" />
        </mxCell>
        <mxCell id="VpzqkuG75HWZYniPs1sA-9" style="edgeStyle=orthogonalEdgeStyle;rounded=0;orthogonalLoop=1;jettySize=auto;html=1;entryX=0.997;entryY=0.178;entryDx=0;entryDy=0;entryPerimeter=0;" edge="1" parent="1" source="VpzqkuG75HWZYniPs1sA-6" target="VpzqkuG75HWZYniPs1sA-7">
          <mxGeometry relative="1" as="geometry">
            <Array as="points">
              <mxPoint x="540" y="231" />
              <mxPoint x="540" y="231" />
            </Array>
          </mxGeometry>
        </mxCell>
        <mxCell id="VpzqkuG75HWZYniPs1sA-6" value="Player" style="rounded=1;whiteSpace=wrap;html=1;fillColor=#d5e8d4;strokeColor=#82b366;" vertex="1" parent="1">
          <mxGeometry x="550" y="220" width="120" height="60" as="geometry" />
        </mxCell>
        <mxCell id="VpzqkuG75HWZYniPs1sA-11" style="edgeStyle=orthogonalEdgeStyle;rounded=0;orthogonalLoop=1;jettySize=auto;html=1;entryX=0.5;entryY=0;entryDx=0;entryDy=0;entryPerimeter=0;" edge="1" parent="1" source="VpzqkuG75HWZYniPs1sA-7" target="VpzqkuG75HWZYniPs1sA-10">
          <mxGeometry relative="1" as="geometry" />
        </mxCell>
        <mxCell id="VpzqkuG75HWZYniPs1sA-25" style="edgeStyle=orthogonalEdgeStyle;rounded=0;orthogonalLoop=1;jettySize=auto;html=1;" edge="1" parent="1" source="VpzqkuG75HWZYniPs1sA-7">
          <mxGeometry relative="1" as="geometry">
            <mxPoint x="550" y="270" as="targetPoint" />
            <Array as="points">
              <mxPoint x="550" y="270" />
            </Array>
          </mxGeometry>
        </mxCell>
        <mxCell id="VpzqkuG75HWZYniPs1sA-26" style="edgeStyle=orthogonalEdgeStyle;rounded=0;orthogonalLoop=1;jettySize=auto;html=1;entryX=0.5;entryY=1;entryDx=0;entryDy=0;" edge="1" parent="1" source="VpzqkuG75HWZYniPs1sA-7" target="VpzqkuG75HWZYniPs1sA-24">
          <mxGeometry relative="1" as="geometry" />
        </mxCell>
        <mxCell id="VpzqkuG75HWZYniPs1sA-7" value="TradeAll Stage&lt;br&gt;Buy/Sell/None" style="rounded=1;whiteSpace=wrap;html=1;fillColor=#d5e8d4;strokeColor=#82b366;" vertex="1" parent="1">
          <mxGeometry x="360" y="220" width="120" height="60" as="geometry" />
        </mxCell>
        <mxCell id="VpzqkuG75HWZYniPs1sA-18" value="if Trainingsset is complete&lt;br&gt;and fulfills Requirements&amp;nbsp;" style="edgeStyle=orthogonalEdgeStyle;rounded=0;orthogonalLoop=1;jettySize=auto;html=1;exitX=0.5;exitY=1;exitDx=0;exitDy=0;exitPerimeter=0;entryX=0.5;entryY=0;entryDx=0;entryDy=0;" edge="1" parent="1" source="VpzqkuG75HWZYniPs1sA-10" target="VpzqkuG75HWZYniPs1sA-17">
          <mxGeometry relative="1" as="geometry" />
        </mxCell>
        <mxCell id="VpzqkuG75HWZYniPs1sA-10" value="Training&lt;br&gt;Data" style="shape=cylinder3;whiteSpace=wrap;html=1;boundedLbl=1;backgroundOutline=1;size=15;" vertex="1" parent="1">
          <mxGeometry x="390" y="330" width="60" height="80" as="geometry" />
        </mxCell>
        <mxCell id="VpzqkuG75HWZYniPs1sA-23" style="edgeStyle=orthogonalEdgeStyle;rounded=0;orthogonalLoop=1;jettySize=auto;html=1;entryX=0.5;entryY=1;entryDx=0;entryDy=0;strokeColor=#FF0000;" edge="1" parent="1" source="VpzqkuG75HWZYniPs1sA-12" target="VpzqkuG75HWZYniPs1sA-4">
          <mxGeometry relative="1" as="geometry" />
        </mxCell>
        <mxCell id="VpzqkuG75HWZYniPs1sA-12" value="AI&lt;br&gt;Decision&lt;br&gt;Buy/Sell/None" style="rounded=1;whiteSpace=wrap;html=1;" vertex="1" parent="1">
          <mxGeometry x="190" y="590" width="120" height="60" as="geometry" />
        </mxCell>
        <mxCell id="VpzqkuG75HWZYniPs1sA-21" style="edgeStyle=orthogonalEdgeStyle;rounded=0;orthogonalLoop=1;jettySize=auto;html=1;entryX=0.5;entryY=0;entryDx=0;entryDy=0;entryPerimeter=0;" edge="1" parent="1" source="VpzqkuG75HWZYniPs1sA-17" target="VpzqkuG75HWZYniPs1sA-20">
          <mxGeometry relative="1" as="geometry" />
        </mxCell>
        <mxCell id="VpzqkuG75HWZYniPs1sA-17" value="AI&lt;br&gt;Trainer" style="rounded=1;whiteSpace=wrap;html=1;" vertex="1" parent="1">
          <mxGeometry x="360" y="470" width="120" height="60" as="geometry" />
        </mxCell>
        <mxCell id="VpzqkuG75HWZYniPs1sA-22" value="train&lt;br&gt;and&lt;br&gt;start&lt;br&gt;trading" style="edgeStyle=orthogonalEdgeStyle;rounded=0;orthogonalLoop=1;jettySize=auto;html=1;" edge="1" parent="1" source="VpzqkuG75HWZYniPs1sA-20" target="VpzqkuG75HWZYniPs1sA-12">
          <mxGeometry relative="1" as="geometry" />
        </mxCell>
        <mxCell id="VpzqkuG75HWZYniPs1sA-20" value="AI&lt;br&gt;Training&lt;br&gt;Data" style="shape=cylinder3;whiteSpace=wrap;html=1;boundedLbl=1;backgroundOutline=1;size=15;" vertex="1" parent="1">
          <mxGeometry x="390" y="580" width="60" height="80" as="geometry" />
        </mxCell>
        <mxCell id="VpzqkuG75HWZYniPs1sA-24" value="Bank Account&lt;br&gt;Simulated" style="rounded=1;whiteSpace=wrap;html=1;fillColor=#d5e8d4;strokeColor=#82b366;" vertex="1" parent="1">
          <mxGeometry x="360" y="90" width="120" height="60" as="geometry" />
        </mxCell>
        <mxCell id="VpzqkuG75HWZYniPs1sA-28" style="rounded=0;orthogonalLoop=1;jettySize=auto;html=1;entryX=0;entryY=0.5;entryDx=0;entryDy=0;startArrow=classic;startFill=1;" edge="1" parent="1" source="VpzqkuG75HWZYniPs1sA-27" target="VpzqkuG75HWZYniPs1sA-7">
          <mxGeometry relative="1" as="geometry" />
        </mxCell>
        <mxCell id="VpzqkuG75HWZYniPs1sA-30" style="edgeStyle=orthogonalEdgeStyle;rounded=0;orthogonalLoop=1;jettySize=auto;html=1;entryX=0.5;entryY=0;entryDx=0;entryDy=0;startArrow=classic;startFill=1;" edge="1" parent="1" source="VpzqkuG75HWZYniPs1sA-27" target="VpzqkuG75HWZYniPs1sA-12">
          <mxGeometry relative="1" as="geometry" />
        </mxCell>
        <mxCell id="VpzqkuG75HWZYniPs1sA-27" value="Strategy" style="rounded=1;whiteSpace=wrap;html=1;fillColor=#d5e8d4;strokeColor=#82b366;" vertex="1" parent="1">
          <mxGeometry x="190" y="220" width="120" height="60" as="geometry" />
        </mxCell>
      </root>
    </mxGraphModel>
  </diagram>
</mxfile>
